<mxfile host="app.diagrams.net" modified="2021-09-24T03:48:28.573Z" agent="5.0 (Macintosh; Intel Mac OS X 10_15_7) AppleWebKit/605.1.15 (KHTML, like Gecko) Version/15.0 Safari/605.1.15" etag="w0EGNkrU9dyo6Lkd-P6K" version="15.3.1" type="github">
  <diagram id="C8_kxAK0KzZd8ScJWdYP" name="Page-1">
    <mxGraphModel dx="2233" dy="1128" grid="1" gridSize="10" guides="1" tooltips="1" connect="1" arrows="1" fold="1" page="1" pageScale="1" pageWidth="850" pageHeight="1100" math="0" shadow="0">
      <root>
        <mxCell id="0" />
        <mxCell id="1" parent="0" />
        <mxCell id="q_evUdxcSX7wJStd2-a_-43" value="" style="rounded=1;whiteSpace=wrap;html=1;fillColor=#f8cecc;strokeColor=#b85450;" vertex="1" parent="1">
          <mxGeometry x="470" y="20" width="430" height="590" as="geometry" />
        </mxCell>
        <mxCell id="q_evUdxcSX7wJStd2-a_-42" value="" style="rounded=1;whiteSpace=wrap;html=1;fillColor=#dae8fc;strokeColor=#6c8ebf;" vertex="1" parent="1">
          <mxGeometry x="-60" y="20" width="430" height="590" as="geometry" />
        </mxCell>
        <mxCell id="q_evUdxcSX7wJStd2-a_-2" value="USW-48-POE&lt;br&gt;192.168.0.2/24" style="sketch=0;points=[[0.015,0.015,0],[0.985,0.015,0],[0.985,0.985,0],[0.015,0.985,0],[0.25,0,0],[0.5,0,0],[0.75,0,0],[1,0.25,0],[1,0.5,0],[1,0.75,0],[0.75,1,0],[0.5,1,0],[0.25,1,0],[0,0.75,0],[0,0.5,0],[0,0.25,0]];verticalLabelPosition=bottom;html=1;verticalAlign=top;aspect=fixed;align=center;pointerEvents=1;shape=mxgraph.cisco19.rect;prIcon=l2_switch;fillColor=#FAFAFA;strokeColor=#005073;" vertex="1" parent="1">
          <mxGeometry x="400" y="340" width="50" height="50" as="geometry" />
        </mxCell>
        <mxCell id="q_evUdxcSX7wJStd2-a_-10" style="edgeStyle=orthogonalEdgeStyle;rounded=0;orthogonalLoop=1;jettySize=auto;html=1;exitX=0.5;exitY=0;exitDx=0;exitDy=0;exitPerimeter=0;entryX=0.5;entryY=1;entryDx=0;entryDy=0;entryPerimeter=0;endArrow=none;endFill=0;" edge="1" parent="1" source="q_evUdxcSX7wJStd2-a_-4" target="q_evUdxcSX7wJStd2-a_-2">
          <mxGeometry relative="1" as="geometry" />
        </mxCell>
        <mxCell id="q_evUdxcSX7wJStd2-a_-4" value="USG-Pro&lt;br&gt;192.168.0.1/24" style="sketch=0;points=[[0.5,0,0],[1,0.5,0],[0.5,1,0],[0,0.5,0],[0.145,0.145,0],[0.8555,0.145,0],[0.855,0.8555,0],[0.145,0.855,0]];verticalLabelPosition=bottom;html=1;verticalAlign=top;aspect=fixed;align=center;pointerEvents=1;shape=mxgraph.cisco19.rect;prIcon=router;fillColor=#FAFAFA;strokeColor=#005073;" vertex="1" parent="1">
          <mxGeometry x="400" y="460" width="50" height="50" as="geometry" />
        </mxCell>
        <mxCell id="q_evUdxcSX7wJStd2-a_-6" value="GodPi&lt;br&gt;192.168.0.3/24" style="shape=image;html=1;verticalAlign=top;verticalLabelPosition=bottom;labelBackgroundColor=#ffffff;imageAspect=0;aspect=fixed;image=https://cdn4.iconfinder.com/data/icons/logos-and-brands/512/272_Raspberry_Pi_logo-128.png;imageBackground=none;" vertex="1" parent="1">
          <mxGeometry x="400" y="220" width="50" height="50" as="geometry" />
        </mxCell>
        <mxCell id="q_evUdxcSX7wJStd2-a_-8" value="" style="shape=image;html=1;verticalAlign=top;verticalLabelPosition=bottom;labelBackgroundColor=#ffffff;imageAspect=0;aspect=fixed;image=https://cdn0.iconfinder.com/data/icons/195-flat-flag-psd-icons/70/Russia.png" vertex="1" parent="1">
          <mxGeometry x="120" y="60" width="70" height="70" as="geometry" />
        </mxCell>
        <mxCell id="q_evUdxcSX7wJStd2-a_-9" value="" style="shape=image;html=1;verticalAlign=top;verticalLabelPosition=bottom;labelBackgroundColor=#ffffff;imageAspect=0;aspect=fixed;image=https://cdn0.iconfinder.com/data/icons/195-flat-flag-psd-icons/70/China.png" vertex="1" parent="1">
          <mxGeometry x="650" y="60" width="70" height="70" as="geometry" />
        </mxCell>
        <mxCell id="q_evUdxcSX7wJStd2-a_-22" value="" style="shape=image;html=1;verticalAlign=top;verticalLabelPosition=bottom;labelBackgroundColor=#ffffff;imageAspect=0;aspect=fixed;image=https://cdn4.iconfinder.com/data/icons/logos-and-brands-1/512/272_Raspberry_Pi_logo-128.png" vertex="1" parent="1">
          <mxGeometry x="290" y="270" width="50" height="50" as="geometry" />
        </mxCell>
        <mxCell id="q_evUdxcSX7wJStd2-a_-23" value="" style="shape=image;html=1;verticalAlign=top;verticalLabelPosition=bottom;labelBackgroundColor=#ffffff;imageAspect=0;aspect=fixed;image=https://cdn4.iconfinder.com/data/icons/logos-and-brands-1/512/272_Raspberry_Pi_logo-128.png" vertex="1" parent="1">
          <mxGeometry x="210" y="270" width="50" height="50" as="geometry" />
        </mxCell>
        <mxCell id="q_evUdxcSX7wJStd2-a_-24" value="" style="shape=image;html=1;verticalAlign=top;verticalLabelPosition=bottom;labelBackgroundColor=#ffffff;imageAspect=0;aspect=fixed;image=https://cdn4.iconfinder.com/data/icons/logos-and-brands-1/512/272_Raspberry_Pi_logo-128.png" vertex="1" parent="1">
          <mxGeometry x="210" y="410" width="50" height="50" as="geometry" />
        </mxCell>
        <mxCell id="q_evUdxcSX7wJStd2-a_-25" value="" style="shape=image;html=1;verticalAlign=top;verticalLabelPosition=bottom;labelBackgroundColor=#ffffff;imageAspect=0;aspect=fixed;image=https://cdn4.iconfinder.com/data/icons/logos-and-brands-1/512/272_Raspberry_Pi_logo-128.png" vertex="1" parent="1">
          <mxGeometry x="290" y="410" width="50" height="50" as="geometry" />
        </mxCell>
        <mxCell id="q_evUdxcSX7wJStd2-a_-26" value="" style="shape=image;html=1;verticalAlign=top;verticalLabelPosition=bottom;labelBackgroundColor=#ffffff;imageAspect=0;aspect=fixed;image=https://cdn4.iconfinder.com/data/icons/logos-and-brands-1/512/272_Raspberry_Pi_logo-128.png" vertex="1" parent="1">
          <mxGeometry x="130" y="270" width="50" height="50" as="geometry" />
        </mxCell>
        <mxCell id="q_evUdxcSX7wJStd2-a_-27" value="" style="shape=image;html=1;verticalAlign=top;verticalLabelPosition=bottom;labelBackgroundColor=#ffffff;imageAspect=0;aspect=fixed;image=https://cdn4.iconfinder.com/data/icons/logos-and-brands-1/512/272_Raspberry_Pi_logo-128.png" vertex="1" parent="1">
          <mxGeometry x="-30" y="270" width="50" height="50" as="geometry" />
        </mxCell>
        <mxCell id="q_evUdxcSX7wJStd2-a_-28" value="" style="shape=image;html=1;verticalAlign=top;verticalLabelPosition=bottom;labelBackgroundColor=#ffffff;imageAspect=0;aspect=fixed;image=https://cdn4.iconfinder.com/data/icons/logos-and-brands-1/512/272_Raspberry_Pi_logo-128.png" vertex="1" parent="1">
          <mxGeometry x="50" y="270" width="50" height="50" as="geometry" />
        </mxCell>
        <mxCell id="q_evUdxcSX7wJStd2-a_-29" value="" style="shape=image;html=1;verticalAlign=top;verticalLabelPosition=bottom;labelBackgroundColor=#ffffff;imageAspect=0;aspect=fixed;image=https://cdn4.iconfinder.com/data/icons/logos-and-brands-1/512/272_Raspberry_Pi_logo-128.png" vertex="1" parent="1">
          <mxGeometry x="50" y="410" width="50" height="50" as="geometry" />
        </mxCell>
        <mxCell id="q_evUdxcSX7wJStd2-a_-30" value="" style="shape=image;html=1;verticalAlign=top;verticalLabelPosition=bottom;labelBackgroundColor=#ffffff;imageAspect=0;aspect=fixed;image=https://cdn4.iconfinder.com/data/icons/logos-and-brands-1/512/272_Raspberry_Pi_logo-128.png" vertex="1" parent="1">
          <mxGeometry x="130" y="410" width="50" height="50" as="geometry" />
        </mxCell>
        <mxCell id="q_evUdxcSX7wJStd2-a_-31" value="" style="shape=image;html=1;verticalAlign=top;verticalLabelPosition=bottom;labelBackgroundColor=#ffffff;imageAspect=0;aspect=fixed;image=https://cdn4.iconfinder.com/data/icons/logos-and-brands-1/512/272_Raspberry_Pi_logo-128.png" vertex="1" parent="1">
          <mxGeometry x="-30" y="410" width="50" height="50" as="geometry" />
        </mxCell>
        <mxCell id="q_evUdxcSX7wJStd2-a_-32" value="" style="shape=image;html=1;verticalAlign=top;verticalLabelPosition=bottom;labelBackgroundColor=#ffffff;imageAspect=0;aspect=fixed;image=https://cdn4.iconfinder.com/data/icons/logos-and-brands-1/512/272_Raspberry_Pi_logo-128.png" vertex="1" parent="1">
          <mxGeometry x="820" y="270" width="50" height="50" as="geometry" />
        </mxCell>
        <mxCell id="q_evUdxcSX7wJStd2-a_-33" value="" style="shape=image;html=1;verticalAlign=top;verticalLabelPosition=bottom;labelBackgroundColor=#ffffff;imageAspect=0;aspect=fixed;image=https://cdn4.iconfinder.com/data/icons/logos-and-brands-1/512/272_Raspberry_Pi_logo-128.png" vertex="1" parent="1">
          <mxGeometry x="740" y="270" width="50" height="50" as="geometry" />
        </mxCell>
        <mxCell id="q_evUdxcSX7wJStd2-a_-34" value="" style="shape=image;html=1;verticalAlign=top;verticalLabelPosition=bottom;labelBackgroundColor=#ffffff;imageAspect=0;aspect=fixed;image=https://cdn4.iconfinder.com/data/icons/logos-and-brands-1/512/272_Raspberry_Pi_logo-128.png" vertex="1" parent="1">
          <mxGeometry x="740" y="410" width="50" height="50" as="geometry" />
        </mxCell>
        <mxCell id="q_evUdxcSX7wJStd2-a_-35" value="" style="shape=image;html=1;verticalAlign=top;verticalLabelPosition=bottom;labelBackgroundColor=#ffffff;imageAspect=0;aspect=fixed;image=https://cdn4.iconfinder.com/data/icons/logos-and-brands-1/512/272_Raspberry_Pi_logo-128.png" vertex="1" parent="1">
          <mxGeometry x="820" y="410" width="50" height="50" as="geometry" />
        </mxCell>
        <mxCell id="q_evUdxcSX7wJStd2-a_-36" value="" style="shape=image;html=1;verticalAlign=top;verticalLabelPosition=bottom;labelBackgroundColor=#ffffff;imageAspect=0;aspect=fixed;image=https://cdn4.iconfinder.com/data/icons/logos-and-brands-1/512/272_Raspberry_Pi_logo-128.png" vertex="1" parent="1">
          <mxGeometry x="660" y="270" width="50" height="50" as="geometry" />
        </mxCell>
        <mxCell id="q_evUdxcSX7wJStd2-a_-37" value="" style="shape=image;html=1;verticalAlign=top;verticalLabelPosition=bottom;labelBackgroundColor=#ffffff;imageAspect=0;aspect=fixed;image=https://cdn4.iconfinder.com/data/icons/logos-and-brands-1/512/272_Raspberry_Pi_logo-128.png" vertex="1" parent="1">
          <mxGeometry x="500" y="270" width="50" height="50" as="geometry" />
        </mxCell>
        <mxCell id="q_evUdxcSX7wJStd2-a_-38" value="" style="shape=image;html=1;verticalAlign=top;verticalLabelPosition=bottom;labelBackgroundColor=#ffffff;imageAspect=0;aspect=fixed;image=https://cdn4.iconfinder.com/data/icons/logos-and-brands-1/512/272_Raspberry_Pi_logo-128.png" vertex="1" parent="1">
          <mxGeometry x="580" y="270" width="50" height="50" as="geometry" />
        </mxCell>
        <mxCell id="q_evUdxcSX7wJStd2-a_-39" value="" style="shape=image;html=1;verticalAlign=top;verticalLabelPosition=bottom;labelBackgroundColor=#ffffff;imageAspect=0;aspect=fixed;image=https://cdn4.iconfinder.com/data/icons/logos-and-brands-1/512/272_Raspberry_Pi_logo-128.png" vertex="1" parent="1">
          <mxGeometry x="580" y="410" width="50" height="50" as="geometry" />
        </mxCell>
        <mxCell id="q_evUdxcSX7wJStd2-a_-40" value="" style="shape=image;html=1;verticalAlign=top;verticalLabelPosition=bottom;labelBackgroundColor=#ffffff;imageAspect=0;aspect=fixed;image=https://cdn4.iconfinder.com/data/icons/logos-and-brands-1/512/272_Raspberry_Pi_logo-128.png" vertex="1" parent="1">
          <mxGeometry x="660" y="410" width="50" height="50" as="geometry" />
        </mxCell>
        <mxCell id="q_evUdxcSX7wJStd2-a_-41" value="" style="shape=image;html=1;verticalAlign=top;verticalLabelPosition=bottom;labelBackgroundColor=#ffffff;imageAspect=0;aspect=fixed;image=https://cdn4.iconfinder.com/data/icons/logos-and-brands-1/512/272_Raspberry_Pi_logo-128.png" vertex="1" parent="1">
          <mxGeometry x="500" y="410" width="50" height="50" as="geometry" />
        </mxCell>
      </root>
    </mxGraphModel>
  </diagram>
</mxfile>
